<svg xmlns="http://www.w3.org/2000/svg" xmlns:xlink="http://www.w3.org/1999/xlink" style="margin: auto; background: rgb(216, 187, 151); display: block;" width="207px" height="207px" viewBox="0 0 100 100" preserveAspectRatio="xMidYMid">
<g transform="rotate(0 50 50)">
  <rect x="48.5" y="12.5" rx="0" ry="0" width="3" height="1" fill="#2429ca">
    <animate attributeName="opacity" values="1;0" keyTimes="0;1" dur="0.9900990099009901s" begin="-0.9785862307160949s" repeatCount="indefinite"></animate>
  </rect>
</g><g transform="rotate(4.186046511627907 50 50)">
  <rect x="48.5" y="12.5" rx="0" ry="0" width="3" height="1" fill="#2429ca">
    <animate attributeName="opacity" values="1;0" keyTimes="0;1" dur="0.9900990099009901s" begin="-0.9670734515311996s" repeatCount="indefinite"></animate>
  </rect>
</g><g transform="rotate(8.372093023255815 50 50)">
  <rect x="48.5" y="12.5" rx="0" ry="0" width="3" height="1" fill="#2429ca">
    <animate attributeName="opacity" values="1;0" keyTimes="0;1" dur="0.9900990099009901s" begin="-0.9555606723463044s" repeatCount="indefinite"></animate>
  </rect>
</g><g transform="rotate(12.55813953488372 50 50)">
  <rect x="48.5" y="12.5" rx="0" ry="0" width="3" height="1" fill="#2429ca">
    <animate attributeName="opacity" values="1;0" keyTimes="0;1" dur="0.9900990099009901s" begin="-0.9440478931614091s" repeatCount="indefinite"></animate>
  </rect>
</g><g transform="rotate(16.74418604651163 50 50)">
  <rect x="48.5" y="12.5" rx="0" ry="0" width="3" height="1" fill="#2429ca">
    <animate attributeName="opacity" values="1;0" keyTimes="0;1" dur="0.9900990099009901s" begin="-0.9325351139765139s" repeatCount="indefinite"></animate>
  </rect>
</g><g transform="rotate(20.930232558139537 50 50)">
  <rect x="48.5" y="12.5" rx="0" ry="0" width="3" height="1" fill="#2429ca">
    <animate attributeName="opacity" values="1;0" keyTimes="0;1" dur="0.9900990099009901s" begin="-0.9210223347916187s" repeatCount="indefinite"></animate>
  </rect>
</g><g transform="rotate(25.11627906976744 50 50)">
  <rect x="48.5" y="12.5" rx="0" ry="0" width="3" height="1" fill="#2429ca">
    <animate attributeName="opacity" values="1;0" keyTimes="0;1" dur="0.9900990099009901s" begin="-0.9095095556067234s" repeatCount="indefinite"></animate>
  </rect>
</g><g transform="rotate(29.302325581395348 50 50)">
  <rect x="48.5" y="12.5" rx="0" ry="0" width="3" height="1" fill="#2429ca">
    <animate attributeName="opacity" values="1;0" keyTimes="0;1" dur="0.9900990099009901s" begin="-0.8979967764218282s" repeatCount="indefinite"></animate>
  </rect>
</g><g transform="rotate(33.48837209302326 50 50)">
  <rect x="48.5" y="12.5" rx="0" ry="0" width="3" height="1" fill="#2429ca">
    <animate attributeName="opacity" values="1;0" keyTimes="0;1" dur="0.9900990099009901s" begin="-0.886483997236933s" repeatCount="indefinite"></animate>
  </rect>
</g><g transform="rotate(37.674418604651166 50 50)">
  <rect x="48.5" y="12.5" rx="0" ry="0" width="3" height="1" fill="#2429ca">
    <animate attributeName="opacity" values="1;0" keyTimes="0;1" dur="0.9900990099009901s" begin="-0.8749712180520378s" repeatCount="indefinite"></animate>
  </rect>
</g><g transform="rotate(41.86046511627907 50 50)">
  <rect x="48.5" y="12.5" rx="0" ry="0" width="3" height="1" fill="#2429ca">
    <animate attributeName="opacity" values="1;0" keyTimes="0;1" dur="0.9900990099009901s" begin="-0.8634584388671426s" repeatCount="indefinite"></animate>
  </rect>
</g><g transform="rotate(46.04651162790697 50 50)">
  <rect x="48.5" y="12.5" rx="0" ry="0" width="3" height="1" fill="#2429ca">
    <animate attributeName="opacity" values="1;0" keyTimes="0;1" dur="0.9900990099009901s" begin="-0.8519456596822473s" repeatCount="indefinite"></animate>
  </rect>
</g><g transform="rotate(50.23255813953488 50 50)">
  <rect x="48.5" y="12.5" rx="0" ry="0" width="3" height="1" fill="#2429ca">
    <animate attributeName="opacity" values="1;0" keyTimes="0;1" dur="0.9900990099009901s" begin="-0.8404328804973521s" repeatCount="indefinite"></animate>
  </rect>
</g><g transform="rotate(54.41860465116279 50 50)">
  <rect x="48.5" y="12.5" rx="0" ry="0" width="3" height="1" fill="#2429ca">
    <animate attributeName="opacity" values="1;0" keyTimes="0;1" dur="0.9900990099009901s" begin="-0.8289201013124569s" repeatCount="indefinite"></animate>
  </rect>
</g><g transform="rotate(58.604651162790695 50 50)">
  <rect x="48.5" y="12.5" rx="0" ry="0" width="3" height="1" fill="#2429ca">
    <animate attributeName="opacity" values="1;0" keyTimes="0;1" dur="0.9900990099009901s" begin="-0.8174073221275616s" repeatCount="indefinite"></animate>
  </rect>
</g><g transform="rotate(62.7906976744186 50 50)">
  <rect x="48.5" y="12.5" rx="0" ry="0" width="3" height="1" fill="#2429ca">
    <animate attributeName="opacity" values="1;0" keyTimes="0;1" dur="0.9900990099009901s" begin="-0.8058945429426664s" repeatCount="indefinite"></animate>
  </rect>
</g><g transform="rotate(66.97674418604652 50 50)">
  <rect x="48.5" y="12.5" rx="0" ry="0" width="3" height="1" fill="#2429ca">
    <animate attributeName="opacity" values="1;0" keyTimes="0;1" dur="0.9900990099009901s" begin="-0.7943817637577711s" repeatCount="indefinite"></animate>
  </rect>
</g><g transform="rotate(71.16279069767442 50 50)">
  <rect x="48.5" y="12.5" rx="0" ry="0" width="3" height="1" fill="#2429ca">
    <animate attributeName="opacity" values="1;0" keyTimes="0;1" dur="0.9900990099009901s" begin="-0.7828689845728759s" repeatCount="indefinite"></animate>
  </rect>
</g><g transform="rotate(75.34883720930233 50 50)">
  <rect x="48.5" y="12.5" rx="0" ry="0" width="3" height="1" fill="#2429ca">
    <animate attributeName="opacity" values="1;0" keyTimes="0;1" dur="0.9900990099009901s" begin="-0.7713562053879807s" repeatCount="indefinite"></animate>
  </rect>
</g><g transform="rotate(79.53488372093024 50 50)">
  <rect x="48.5" y="12.5" rx="0" ry="0" width="3" height="1" fill="#2429ca">
    <animate attributeName="opacity" values="1;0" keyTimes="0;1" dur="0.9900990099009901s" begin="-0.7598434262030854s" repeatCount="indefinite"></animate>
  </rect>
</g><g transform="rotate(83.72093023255815 50 50)">
  <rect x="48.5" y="12.5" rx="0" ry="0" width="3" height="1" fill="#2429ca">
    <animate attributeName="opacity" values="1;0" keyTimes="0;1" dur="0.9900990099009901s" begin="-0.7483306470181902s" repeatCount="indefinite"></animate>
  </rect>
</g><g transform="rotate(87.90697674418605 50 50)">
  <rect x="48.5" y="12.5" rx="0" ry="0" width="3" height="1" fill="#2429ca">
    <animate attributeName="opacity" values="1;0" keyTimes="0;1" dur="0.9900990099009901s" begin="-0.736817867833295s" repeatCount="indefinite"></animate>
  </rect>
</g><g transform="rotate(92.09302325581395 50 50)">
  <rect x="48.5" y="12.5" rx="0" ry="0" width="3" height="1" fill="#2429ca">
    <animate attributeName="opacity" values="1;0" keyTimes="0;1" dur="0.9900990099009901s" begin="-0.7253050886483997s" repeatCount="indefinite"></animate>
  </rect>
</g><g transform="rotate(96.27906976744185 50 50)">
  <rect x="48.5" y="12.5" rx="0" ry="0" width="3" height="1" fill="#2429ca">
    <animate attributeName="opacity" values="1;0" keyTimes="0;1" dur="0.9900990099009901s" begin="-0.7137923094635045s" repeatCount="indefinite"></animate>
  </rect>
</g><g transform="rotate(100.46511627906976 50 50)">
  <rect x="48.5" y="12.5" rx="0" ry="0" width="3" height="1" fill="#2429ca">
    <animate attributeName="opacity" values="1;0" keyTimes="0;1" dur="0.9900990099009901s" begin="-0.7022795302786092s" repeatCount="indefinite"></animate>
  </rect>
</g><g transform="rotate(104.65116279069767 50 50)">
  <rect x="48.5" y="12.5" rx="0" ry="0" width="3" height="1" fill="#2429ca">
    <animate attributeName="opacity" values="1;0" keyTimes="0;1" dur="0.9900990099009901s" begin="-0.690766751093714s" repeatCount="indefinite"></animate>
  </rect>
</g><g transform="rotate(108.83720930232558 50 50)">
  <rect x="48.5" y="12.5" rx="0" ry="0" width="3" height="1" fill="#2429ca">
    <animate attributeName="opacity" values="1;0" keyTimes="0;1" dur="0.9900990099009901s" begin="-0.6792539719088188s" repeatCount="indefinite"></animate>
  </rect>
</g><g transform="rotate(113.02325581395348 50 50)">
  <rect x="48.5" y="12.5" rx="0" ry="0" width="3" height="1" fill="#2429ca">
    <animate attributeName="opacity" values="1;0" keyTimes="0;1" dur="0.9900990099009901s" begin="-0.6677411927239235s" repeatCount="indefinite"></animate>
  </rect>
</g><g transform="rotate(117.20930232558139 50 50)">
  <rect x="48.5" y="12.5" rx="0" ry="0" width="3" height="1" fill="#2429ca">
    <animate attributeName="opacity" values="1;0" keyTimes="0;1" dur="0.9900990099009901s" begin="-0.6562284135390283s" repeatCount="indefinite"></animate>
  </rect>
</g><g transform="rotate(121.3953488372093 50 50)">
  <rect x="48.5" y="12.5" rx="0" ry="0" width="3" height="1" fill="#2429ca">
    <animate attributeName="opacity" values="1;0" keyTimes="0;1" dur="0.9900990099009901s" begin="-0.644715634354133s" repeatCount="indefinite"></animate>
  </rect>
</g><g transform="rotate(125.5813953488372 50 50)">
  <rect x="48.5" y="12.5" rx="0" ry="0" width="3" height="1" fill="#2429ca">
    <animate attributeName="opacity" values="1;0" keyTimes="0;1" dur="0.9900990099009901s" begin="-0.6332028551692379s" repeatCount="indefinite"></animate>
  </rect>
</g><g transform="rotate(129.7674418604651 50 50)">
  <rect x="48.5" y="12.5" rx="0" ry="0" width="3" height="1" fill="#2429ca">
    <animate attributeName="opacity" values="1;0" keyTimes="0;1" dur="0.9900990099009901s" begin="-0.6216900759843427s" repeatCount="indefinite"></animate>
  </rect>
</g><g transform="rotate(133.95348837209303 50 50)">
  <rect x="48.5" y="12.5" rx="0" ry="0" width="3" height="1" fill="#2429ca">
    <animate attributeName="opacity" values="1;0" keyTimes="0;1" dur="0.9900990099009901s" begin="-0.6101772967994474s" repeatCount="indefinite"></animate>
  </rect>
</g><g transform="rotate(138.13953488372093 50 50)">
  <rect x="48.5" y="12.5" rx="0" ry="0" width="3" height="1" fill="#2429ca">
    <animate attributeName="opacity" values="1;0" keyTimes="0;1" dur="0.9900990099009901s" begin="-0.5986645176145522s" repeatCount="indefinite"></animate>
  </rect>
</g><g transform="rotate(142.32558139534885 50 50)">
  <rect x="48.5" y="12.5" rx="0" ry="0" width="3" height="1" fill="#2429ca">
    <animate attributeName="opacity" values="1;0" keyTimes="0;1" dur="0.9900990099009901s" begin="-0.587151738429657s" repeatCount="indefinite"></animate>
  </rect>
</g><g transform="rotate(146.51162790697674 50 50)">
  <rect x="48.5" y="12.5" rx="0" ry="0" width="3" height="1" fill="#2429ca">
    <animate attributeName="opacity" values="1;0" keyTimes="0;1" dur="0.9900990099009901s" begin="-0.5756389592447617s" repeatCount="indefinite"></animate>
  </rect>
</g><g transform="rotate(150.69767441860466 50 50)">
  <rect x="48.5" y="12.5" rx="0" ry="0" width="3" height="1" fill="#2429ca">
    <animate attributeName="opacity" values="1;0" keyTimes="0;1" dur="0.9900990099009901s" begin="-0.5641261800598665s" repeatCount="indefinite"></animate>
  </rect>
</g><g transform="rotate(154.88372093023256 50 50)">
  <rect x="48.5" y="12.5" rx="0" ry="0" width="3" height="1" fill="#2429ca">
    <animate attributeName="opacity" values="1;0" keyTimes="0;1" dur="0.9900990099009901s" begin="-0.5526134008749712s" repeatCount="indefinite"></animate>
  </rect>
</g><g transform="rotate(159.06976744186048 50 50)">
  <rect x="48.5" y="12.5" rx="0" ry="0" width="3" height="1" fill="#2429ca">
    <animate attributeName="opacity" values="1;0" keyTimes="0;1" dur="0.9900990099009901s" begin="-0.541100621690076s" repeatCount="indefinite"></animate>
  </rect>
</g><g transform="rotate(163.25581395348837 50 50)">
  <rect x="48.5" y="12.5" rx="0" ry="0" width="3" height="1" fill="#2429ca">
    <animate attributeName="opacity" values="1;0" keyTimes="0;1" dur="0.9900990099009901s" begin="-0.5295878425051808s" repeatCount="indefinite"></animate>
  </rect>
</g><g transform="rotate(167.4418604651163 50 50)">
  <rect x="48.5" y="12.5" rx="0" ry="0" width="3" height="1" fill="#2429ca">
    <animate attributeName="opacity" values="1;0" keyTimes="0;1" dur="0.9900990099009901s" begin="-0.5180750633202855s" repeatCount="indefinite"></animate>
  </rect>
</g><g transform="rotate(171.62790697674419 50 50)">
  <rect x="48.5" y="12.5" rx="0" ry="0" width="3" height="1" fill="#2429ca">
    <animate attributeName="opacity" values="1;0" keyTimes="0;1" dur="0.9900990099009901s" begin="-0.5065622841353903s" repeatCount="indefinite"></animate>
  </rect>
</g><g transform="rotate(175.8139534883721 50 50)">
  <rect x="48.5" y="12.5" rx="0" ry="0" width="3" height="1" fill="#2429ca">
    <animate attributeName="opacity" values="1;0" keyTimes="0;1" dur="0.9900990099009901s" begin="-0.49504950495049505s" repeatCount="indefinite"></animate>
  </rect>
</g><g transform="rotate(180 50 50)">
  <rect x="48.5" y="12.5" rx="0" ry="0" width="3" height="1" fill="#2429ca">
    <animate attributeName="opacity" values="1;0" keyTimes="0;1" dur="0.9900990099009901s" begin="-0.4835367257655998s" repeatCount="indefinite"></animate>
  </rect>
</g><g transform="rotate(184.1860465116279 50 50)">
  <rect x="48.5" y="12.5" rx="0" ry="0" width="3" height="1" fill="#2429ca">
    <animate attributeName="opacity" values="1;0" keyTimes="0;1" dur="0.9900990099009901s" begin="-0.47202394658070457s" repeatCount="indefinite"></animate>
  </rect>
</g><g transform="rotate(188.37209302325581 50 50)">
  <rect x="48.5" y="12.5" rx="0" ry="0" width="3" height="1" fill="#2429ca">
    <animate attributeName="opacity" values="1;0" keyTimes="0;1" dur="0.9900990099009901s" begin="-0.46051116739580933s" repeatCount="indefinite"></animate>
  </rect>
</g><g transform="rotate(192.5581395348837 50 50)">
  <rect x="48.5" y="12.5" rx="0" ry="0" width="3" height="1" fill="#2429ca">
    <animate attributeName="opacity" values="1;0" keyTimes="0;1" dur="0.9900990099009901s" begin="-0.4489983882109141s" repeatCount="indefinite"></animate>
  </rect>
</g><g transform="rotate(196.74418604651163 50 50)">
  <rect x="48.5" y="12.5" rx="0" ry="0" width="3" height="1" fill="#2429ca">
    <animate attributeName="opacity" values="1;0" keyTimes="0;1" dur="0.9900990099009901s" begin="-0.4374856090260189s" repeatCount="indefinite"></animate>
  </rect>
</g><g transform="rotate(200.93023255813952 50 50)">
  <rect x="48.5" y="12.5" rx="0" ry="0" width="3" height="1" fill="#2429ca">
    <animate attributeName="opacity" values="1;0" keyTimes="0;1" dur="0.9900990099009901s" begin="-0.42597282984112367s" repeatCount="indefinite"></animate>
  </rect>
</g><g transform="rotate(205.11627906976744 50 50)">
  <rect x="48.5" y="12.5" rx="0" ry="0" width="3" height="1" fill="#2429ca">
    <animate attributeName="opacity" values="1;0" keyTimes="0;1" dur="0.9900990099009901s" begin="-0.41446005065622843s" repeatCount="indefinite"></animate>
  </rect>
</g><g transform="rotate(209.30232558139534 50 50)">
  <rect x="48.5" y="12.5" rx="0" ry="0" width="3" height="1" fill="#2429ca">
    <animate attributeName="opacity" values="1;0" keyTimes="0;1" dur="0.9900990099009901s" begin="-0.4029472714713332s" repeatCount="indefinite"></animate>
  </rect>
</g><g transform="rotate(213.48837209302326 50 50)">
  <rect x="48.5" y="12.5" rx="0" ry="0" width="3" height="1" fill="#2429ca">
    <animate attributeName="opacity" values="1;0" keyTimes="0;1" dur="0.9900990099009901s" begin="-0.39143449228643795s" repeatCount="indefinite"></animate>
  </rect>
</g><g transform="rotate(217.67441860465115 50 50)">
  <rect x="48.5" y="12.5" rx="0" ry="0" width="3" height="1" fill="#2429ca">
    <animate attributeName="opacity" values="1;0" keyTimes="0;1" dur="0.9900990099009901s" begin="-0.3799217131015427s" repeatCount="indefinite"></animate>
  </rect>
</g><g transform="rotate(221.86046511627907 50 50)">
  <rect x="48.5" y="12.5" rx="0" ry="0" width="3" height="1" fill="#2429ca">
    <animate attributeName="opacity" values="1;0" keyTimes="0;1" dur="0.9900990099009901s" begin="-0.3684089339166475s" repeatCount="indefinite"></animate>
  </rect>
</g><g transform="rotate(226.04651162790697 50 50)">
  <rect x="48.5" y="12.5" rx="0" ry="0" width="3" height="1" fill="#2429ca">
    <animate attributeName="opacity" values="1;0" keyTimes="0;1" dur="0.9900990099009901s" begin="-0.35689615473175224s" repeatCount="indefinite"></animate>
  </rect>
</g><g transform="rotate(230.2325581395349 50 50)">
  <rect x="48.5" y="12.5" rx="0" ry="0" width="3" height="1" fill="#2429ca">
    <animate attributeName="opacity" values="1;0" keyTimes="0;1" dur="0.9900990099009901s" begin="-0.345383375546857s" repeatCount="indefinite"></animate>
  </rect>
</g><g transform="rotate(234.41860465116278 50 50)">
  <rect x="48.5" y="12.5" rx="0" ry="0" width="3" height="1" fill="#2429ca">
    <animate attributeName="opacity" values="1;0" keyTimes="0;1" dur="0.9900990099009901s" begin="-0.33387059636196176s" repeatCount="indefinite"></animate>
  </rect>
</g><g transform="rotate(238.6046511627907 50 50)">
  <rect x="48.5" y="12.5" rx="0" ry="0" width="3" height="1" fill="#2429ca">
    <animate attributeName="opacity" values="1;0" keyTimes="0;1" dur="0.9900990099009901s" begin="-0.3223578171770665s" repeatCount="indefinite"></animate>
  </rect>
</g><g transform="rotate(242.7906976744186 50 50)">
  <rect x="48.5" y="12.5" rx="0" ry="0" width="3" height="1" fill="#2429ca">
    <animate attributeName="opacity" values="1;0" keyTimes="0;1" dur="0.9900990099009901s" begin="-0.31084503799217134s" repeatCount="indefinite"></animate>
  </rect>
</g><g transform="rotate(246.97674418604652 50 50)">
  <rect x="48.5" y="12.5" rx="0" ry="0" width="3" height="1" fill="#2429ca">
    <animate attributeName="opacity" values="1;0" keyTimes="0;1" dur="0.9900990099009901s" begin="-0.2993322588072761s" repeatCount="indefinite"></animate>
  </rect>
</g><g transform="rotate(251.1627906976744 50 50)">
  <rect x="48.5" y="12.5" rx="0" ry="0" width="3" height="1" fill="#2429ca">
    <animate attributeName="opacity" values="1;0" keyTimes="0;1" dur="0.9900990099009901s" begin="-0.28781947962238086s" repeatCount="indefinite"></animate>
  </rect>
</g><g transform="rotate(255.34883720930233 50 50)">
  <rect x="48.5" y="12.5" rx="0" ry="0" width="3" height="1" fill="#2429ca">
    <animate attributeName="opacity" values="1;0" keyTimes="0;1" dur="0.9900990099009901s" begin="-0.2763067004374856s" repeatCount="indefinite"></animate>
  </rect>
</g><g transform="rotate(259.5348837209302 50 50)">
  <rect x="48.5" y="12.5" rx="0" ry="0" width="3" height="1" fill="#2429ca">
    <animate attributeName="opacity" values="1;0" keyTimes="0;1" dur="0.9900990099009901s" begin="-0.2647939212525904s" repeatCount="indefinite"></animate>
  </rect>
</g><g transform="rotate(263.72093023255815 50 50)">
  <rect x="48.5" y="12.5" rx="0" ry="0" width="3" height="1" fill="#2429ca">
    <animate attributeName="opacity" values="1;0" keyTimes="0;1" dur="0.9900990099009901s" begin="-0.25328114206769514s" repeatCount="indefinite"></animate>
  </rect>
</g><g transform="rotate(267.90697674418607 50 50)">
  <rect x="48.5" y="12.5" rx="0" ry="0" width="3" height="1" fill="#2429ca">
    <animate attributeName="opacity" values="1;0" keyTimes="0;1" dur="0.9900990099009901s" begin="-0.2417683628827999s" repeatCount="indefinite"></animate>
  </rect>
</g><g transform="rotate(272.09302325581393 50 50)">
  <rect x="48.5" y="12.5" rx="0" ry="0" width="3" height="1" fill="#2429ca">
    <animate attributeName="opacity" values="1;0" keyTimes="0;1" dur="0.9900990099009901s" begin="-0.23025558369790466s" repeatCount="indefinite"></animate>
  </rect>
</g><g transform="rotate(276.27906976744185 50 50)">
  <rect x="48.5" y="12.5" rx="0" ry="0" width="3" height="1" fill="#2429ca">
    <animate attributeName="opacity" values="1;0" keyTimes="0;1" dur="0.9900990099009901s" begin="-0.21874280451300945s" repeatCount="indefinite"></animate>
  </rect>
</g><g transform="rotate(280.4651162790698 50 50)">
  <rect x="48.5" y="12.5" rx="0" ry="0" width="3" height="1" fill="#2429ca">
    <animate attributeName="opacity" values="1;0" keyTimes="0;1" dur="0.9900990099009901s" begin="-0.20723002532811421s" repeatCount="indefinite"></animate>
  </rect>
</g><g transform="rotate(284.6511627906977 50 50)">
  <rect x="48.5" y="12.5" rx="0" ry="0" width="3" height="1" fill="#2429ca">
    <animate attributeName="opacity" values="1;0" keyTimes="0;1" dur="0.9900990099009901s" begin="-0.19571724614321898s" repeatCount="indefinite"></animate>
  </rect>
</g><g transform="rotate(288.83720930232556 50 50)">
  <rect x="48.5" y="12.5" rx="0" ry="0" width="3" height="1" fill="#2429ca">
    <animate attributeName="opacity" values="1;0" keyTimes="0;1" dur="0.9900990099009901s" begin="-0.18420446695832374s" repeatCount="indefinite"></animate>
  </rect>
</g><g transform="rotate(293.0232558139535 50 50)">
  <rect x="48.5" y="12.5" rx="0" ry="0" width="3" height="1" fill="#2429ca">
    <animate attributeName="opacity" values="1;0" keyTimes="0;1" dur="0.9900990099009901s" begin="-0.1726916877734285s" repeatCount="indefinite"></animate>
  </rect>
</g><g transform="rotate(297.2093023255814 50 50)">
  <rect x="48.5" y="12.5" rx="0" ry="0" width="3" height="1" fill="#2429ca">
    <animate attributeName="opacity" values="1;0" keyTimes="0;1" dur="0.9900990099009901s" begin="-0.16117890858853326s" repeatCount="indefinite"></animate>
  </rect>
</g><g transform="rotate(301.3953488372093 50 50)">
  <rect x="48.5" y="12.5" rx="0" ry="0" width="3" height="1" fill="#2429ca">
    <animate attributeName="opacity" values="1;0" keyTimes="0;1" dur="0.9900990099009901s" begin="-0.14966612940363805s" repeatCount="indefinite"></animate>
  </rect>
</g><g transform="rotate(305.5813953488372 50 50)">
  <rect x="48.5" y="12.5" rx="0" ry="0" width="3" height="1" fill="#2429ca">
    <animate attributeName="opacity" values="1;0" keyTimes="0;1" dur="0.9900990099009901s" begin="-0.1381533502187428s" repeatCount="indefinite"></animate>
  </rect>
</g><g transform="rotate(309.7674418604651 50 50)">
  <rect x="48.5" y="12.5" rx="0" ry="0" width="3" height="1" fill="#2429ca">
    <animate attributeName="opacity" values="1;0" keyTimes="0;1" dur="0.9900990099009901s" begin="-0.12664057103384757s" repeatCount="indefinite"></animate>
  </rect>
</g><g transform="rotate(313.95348837209303 50 50)">
  <rect x="48.5" y="12.5" rx="0" ry="0" width="3" height="1" fill="#2429ca">
    <animate attributeName="opacity" values="1;0" keyTimes="0;1" dur="0.9900990099009901s" begin="-0.11512779184895233s" repeatCount="indefinite"></animate>
  </rect>
</g><g transform="rotate(318.13953488372096 50 50)">
  <rect x="48.5" y="12.5" rx="0" ry="0" width="3" height="1" fill="#2429ca">
    <animate attributeName="opacity" values="1;0" keyTimes="0;1" dur="0.9900990099009901s" begin="-0.10361501266405711s" repeatCount="indefinite"></animate>
  </rect>
</g><g transform="rotate(322.3255813953488 50 50)">
  <rect x="48.5" y="12.5" rx="0" ry="0" width="3" height="1" fill="#2429ca">
    <animate attributeName="opacity" values="1;0" keyTimes="0;1" dur="0.9900990099009901s" begin="-0.09210223347916187s" repeatCount="indefinite"></animate>
  </rect>
</g><g transform="rotate(326.51162790697674 50 50)">
  <rect x="48.5" y="12.5" rx="0" ry="0" width="3" height="1" fill="#2429ca">
    <animate attributeName="opacity" values="1;0" keyTimes="0;1" dur="0.9900990099009901s" begin="-0.08058945429426663s" repeatCount="indefinite"></animate>
  </rect>
</g><g transform="rotate(330.69767441860466 50 50)">
  <rect x="48.5" y="12.5" rx="0" ry="0" width="3" height="1" fill="#2429ca">
    <animate attributeName="opacity" values="1;0" keyTimes="0;1" dur="0.9900990099009901s" begin="-0.0690766751093714s" repeatCount="indefinite"></animate>
  </rect>
</g><g transform="rotate(334.8837209302326 50 50)">
  <rect x="48.5" y="12.5" rx="0" ry="0" width="3" height="1" fill="#2429ca">
    <animate attributeName="opacity" values="1;0" keyTimes="0;1" dur="0.9900990099009901s" begin="-0.057563895924476166s" repeatCount="indefinite"></animate>
  </rect>
</g><g transform="rotate(339.06976744186045 50 50)">
  <rect x="48.5" y="12.5" rx="0" ry="0" width="3" height="1" fill="#2429ca">
    <animate attributeName="opacity" values="1;0" keyTimes="0;1" dur="0.9900990099009901s" begin="-0.046051116739580934s" repeatCount="indefinite"></animate>
  </rect>
</g><g transform="rotate(343.25581395348837 50 50)">
  <rect x="48.5" y="12.5" rx="0" ry="0" width="3" height="1" fill="#2429ca">
    <animate attributeName="opacity" values="1;0" keyTimes="0;1" dur="0.9900990099009901s" begin="-0.0345383375546857s" repeatCount="indefinite"></animate>
  </rect>
</g><g transform="rotate(347.4418604651163 50 50)">
  <rect x="48.5" y="12.5" rx="0" ry="0" width="3" height="1" fill="#2429ca">
    <animate attributeName="opacity" values="1;0" keyTimes="0;1" dur="0.9900990099009901s" begin="-0.023025558369790467s" repeatCount="indefinite"></animate>
  </rect>
</g><g transform="rotate(351.6279069767442 50 50)">
  <rect x="48.5" y="12.5" rx="0" ry="0" width="3" height="1" fill="#2429ca">
    <animate attributeName="opacity" values="1;0" keyTimes="0;1" dur="0.9900990099009901s" begin="-0.011512779184895234s" repeatCount="indefinite"></animate>
  </rect>
</g><g transform="rotate(355.8139534883721 50 50)">
  <rect x="48.5" y="12.5" rx="0" ry="0" width="3" height="1" fill="#2429ca">
    <animate attributeName="opacity" values="1;0" keyTimes="0;1" dur="0.9900990099009901s" begin="0s" repeatCount="indefinite"></animate>
  </rect>
</g>
</svg>